<?xml version="1.0" encoding="UTF-8"?>
<svg width="204" height="166" xmlns="http://www.w3.org/2000/svg">
 <!-- Created with SVG-edit - http://svg-edit.googlecode.com/ -->
 <g>
  <title>Layer 1</title>
  <g id="svg_20">
   <g id="svg_19">
    <path id="svg_3" d="m1.5,3.000015l110.5,-3l92,4l-0.5,146.000015l-97.5,16l-104.5,-19.5l0,-143.500015z" stroke-linecap="round" stroke-linejoin="bevel" stroke-dasharray="null" stroke-width="5" stroke="#000000" fill="#000000"/>
    <path id="svg_4" d="m3.5,4.000015l107.5,-4l91,4l-100.5,6.5l-98,-6.5z" stroke-linecap="round" stroke-linejoin="bevel" stroke-dasharray="null" stroke-width="2" stroke="#000000" fill="#7f7f7f"/>
    <path id="svg_5" d="m1.5,41.500015l100,9l100.5,-7l-0.5,12l-100.5,7.5l-101,-8l1.5,-13.5z" stroke-linecap="round" stroke-linejoin="bevel" stroke-dasharray="null" stroke="#000000" fill="#ffff00"/>
    <path id="svg_7" d="m20,63.500015l0,9.000015l24,1.5l-0.5,-8.5l-23.5,-2.000015z" stroke-linecap="round" stroke-linejoin="bevel" stroke-dasharray="null" stroke="#000000" fill="#ffff00"/>
    <path id="svg_8" d="m63.5,66.500031l0,9l24,1.5l-0.5,-8.5l-23.5,-2z" stroke-linecap="round" stroke-linejoin="bevel" stroke-dasharray="null" stroke="#000000" fill="#ffff00"/>
    <path id="svg_9" d="m134.5,68.000031l0,9l23.5,-2.5l-0.5,-8.5l-23,2z" stroke-linecap="round" stroke-linejoin="bevel" stroke-dasharray="null" stroke="#000000" fill="#ffff00"/>
    <path id="svg_10" d="m167.5,65.500031l0,9l23.5,-2.5l-0.5,-8.500015l-23,2.000015z" stroke-linecap="round" stroke-linejoin="bevel" stroke-dasharray="null" stroke="#000000" fill="#ffff00"/>
    <ellipse ry="4.166667" rx="1.75" id="svg_11" cy="66.000015" cx="11.583331" stroke-linecap="round" stroke-linejoin="bevel" stroke-dasharray="null" stroke="#000000" fill="#ffff00"/>
    <ellipse id="svg_12" ry="4.166667" rx="1.75" cy="69.666681" cx="52.58333" stroke-linecap="round" stroke-linejoin="bevel" stroke-dasharray="null" stroke="#000000" fill="#ffff00"/>
    <ellipse id="svg_13" ry="4.166667" rx="1.75" cy="73.000015" cx="97.583328" stroke-linecap="round" stroke-linejoin="bevel" stroke-dasharray="null" stroke="#000000" fill="#ffff00"/>
    <ellipse id="svg_14" ry="4.166667" rx="1.75" cy="73.000015" cx="126.583329" stroke-linecap="round" stroke-linejoin="bevel" stroke-dasharray="null" stroke="#000000" fill="#ffff00"/>
    <ellipse id="svg_15" ry="4.166667" rx="1.75" cy="69.666681" cx="163.249995" stroke-linecap="round" stroke-linejoin="bevel" stroke-dasharray="null" stroke="#000000" fill="#ffff00"/>
    <ellipse id="svg_17" ry="4.166667" rx="1.75" cy="67.666681" cx="196.249996" stroke-linecap="round" stroke-linejoin="bevel" stroke-dasharray="null" stroke="#000000" fill="#ffff00"/>
    <path id="svg_18" d="m108.333344,68.666687l0,11l10,0.666656l-0.333344,-11.666656l-9.666656,0z" stroke-linecap="round" stroke-linejoin="bevel" stroke-dasharray="null" stroke="#000000" fill="#ffff00"/>
   </g>
   <path id="svg_6" d="m0.75,3l110.5,-3l92,4l-0.5,146.000031l-97.5,16l-104.5,-19.5l0,-143.500031z" stroke-linecap="round" stroke-linejoin="bevel" stroke-dasharray="null" stroke-width="5" stroke="#000000" fill="none"/>
  </g>
 </g>
</svg>